<svg width="1024" height="1024" viewBox="0 0 1024 1024" fill="none" xmlns="http://www.w3.org/2000/svg">
<path d="M277 425.5C299.941 425.5 321.943 434.613 338.165 450.835C354.387 467.057 363.5 489.059 363.5 512C363.5 559.773 324.773 598.5 277 598.5C229.227 598.5 190.5 559.773 190.5 512C190.5 464.227 229.227 425.5 277 425.5Z" fill="white" stroke="black" style="fill:white;fill-opacity:1;stroke:black;stroke-opacity:1;" stroke-width="27"/>
<path d="M512 425.5C534.941 425.5 556.943 434.613 573.165 450.835C589.387 467.057 598.5 489.059 598.5 512C598.5 559.773 559.773 598.5 512 598.5C464.227 598.5 425.5 559.773 425.5 512C425.5 464.227 464.227 425.5 512 425.5Z" fill="white" stroke="black" style="fill:white;fill-opacity:1;stroke:black;stroke-opacity:1;" stroke-width="27"/>
<path d="M747 425.5C769.941 425.5 791.943 434.613 808.165 450.835C824.387 467.057 833.5 489.059 833.5 512C833.5 559.773 794.773 598.5 747 598.5C699.227 598.5 660.5 559.773 660.5 512C660.5 464.227 699.227 425.5 747 425.5Z" fill="white" stroke="black" style="fill:white;fill-opacity:1;stroke:black;stroke-opacity:1;" stroke-width="27"/>
</svg>
