<svg width="1024" height="1024" viewBox="0 0 1024 1024" fill="none" xmlns="http://www.w3.org/2000/svg">
<path d="M314.5 438.5C333.861 438.5 352.429 446.191 366.119 459.881C379.809 473.571 387.5 492.139 387.5 511.5C387.5 551.817 354.817 584.5 314.5 584.5C274.183 584.5 241.5 551.817 241.5 511.5C241.5 471.183 274.183 438.5 314.5 438.5Z" fill="white" stroke="black" style="fill:white;fill-opacity:1;stroke:black;stroke-opacity:1;" stroke-width="27"/>
<path d="M511.5 438.5C530.861 438.5 549.429 446.191 563.119 459.881C576.809 473.571 584.5 492.139 584.5 511.5C584.5 551.817 551.817 584.5 511.5 584.5C471.183 584.5 438.5 551.817 438.5 511.5C438.5 471.183 471.183 438.5 511.5 438.5Z" fill="white" stroke="black" style="fill:white;fill-opacity:1;stroke:black;stroke-opacity:1;" stroke-width="27"/>
<path d="M708.5 438.5C727.861 438.5 746.429 446.191 760.119 459.881C773.809 473.571 781.5 492.139 781.5 511.5C781.5 551.817 748.817 584.5 708.5 584.5C668.183 584.5 635.5 551.817 635.5 511.5C635.5 471.183 668.183 438.5 708.5 438.5Z" fill="white" stroke="black" style="fill:white;fill-opacity:1;stroke:black;stroke-opacity:1;" stroke-width="27"/>
</svg>
